<mxfile host="app.diagrams.net" agent="Mozilla/5.0 (Windows NT 10.0; Win64; x64; rv:134.0) Gecko/20100101 Firefox/134.0" version="26.0.5">
  <diagram name="Page-1" id="mBGkU9F05mkswkDvs1eW">
    <mxGraphModel dx="1400" dy="1055" grid="1" gridSize="10" guides="1" tooltips="1" connect="1" arrows="1" fold="1" page="1" pageScale="1" pageWidth="200" pageHeight="200" background="#ffffff" math="0" shadow="0">
      <root>
        <mxCell id="0" />
        <mxCell id="1" parent="0" />
        <mxCell id="IX3JWbPE97Z0-Mn2hiBN-55" value="" style="rounded=0;whiteSpace=wrap;html=1;strokeColor=none;movable=1;resizable=1;rotatable=1;deletable=1;editable=1;locked=0;connectable=1;dashed=1;strokeWidth=2;" parent="1" vertex="1">
          <mxGeometry x="220" y="-60" width="1580" height="570" as="geometry" />
        </mxCell>
        <mxCell id="IX3JWbPE97Z0-Mn2hiBN-38" value="&lt;span&gt;API&lt;/span&gt;" style="whiteSpace=wrap;html=1;rounded=1;labelBackgroundColor=none;shadow=1;fontFamily=Helvetica;fillColor=#e1d5e7;strokeColor=#9673a6;fontStyle=0;fontSize=19;strokeWidth=2;" parent="1" vertex="1">
          <mxGeometry x="1616" y="303" width="120" height="60" as="geometry" />
        </mxCell>
        <mxCell id="IX3JWbPE97Z0-Mn2hiBN-1" value="&lt;span&gt;View&lt;/span&gt;" style="rounded=1;whiteSpace=wrap;html=1;glass=0;shadow=1;labelBackgroundColor=none;fillStyle=solid;fontFamily=Helvetica;fillColor=#ffe6cc;strokeColor=#d79b00;fontStyle=0;fontSize=19;strokeWidth=2;" parent="1" vertex="1">
          <mxGeometry x="282" y="111" width="68" height="266" as="geometry" />
        </mxCell>
        <mxCell id="IX3JWbPE97Z0-Mn2hiBN-21" style="edgeStyle=orthogonalEdgeStyle;rounded=0;orthogonalLoop=1;jettySize=auto;html=1;entryX=0;entryY=0.75;entryDx=0;entryDy=0;labelBackgroundColor=none;shadow=1;fontFamily=Helvetica;fillColor=#ffe6cc;strokeColor=#d79b00;fontStyle=0;fontSize=19;strokeWidth=2;" parent="1" source="IX3JWbPE97Z0-Mn2hiBN-7" target="IX3JWbPE97Z0-Mn2hiBN-20" edge="1">
          <mxGeometry relative="1" as="geometry" />
        </mxCell>
        <mxCell id="IX3JWbPE97Z0-Mn2hiBN-7" value="&lt;span&gt;Intent&lt;/span&gt;" style="whiteSpace=wrap;html=1;rounded=1;glass=0;shadow=1;labelBackgroundColor=none;fontFamily=Helvetica;fillColor=#ffe6cc;strokeColor=#d79b00;fontStyle=0;fontSize=19;strokeWidth=2;" parent="1" vertex="1">
          <mxGeometry x="320" y="290" width="98" height="40" as="geometry" />
        </mxCell>
        <mxCell id="IX3JWbPE97Z0-Mn2hiBN-14" style="edgeStyle=orthogonalEdgeStyle;rounded=0;orthogonalLoop=1;jettySize=auto;html=1;entryX=1;entryY=0.25;entryDx=0;entryDy=0;labelBackgroundColor=none;shadow=1;fontFamily=Helvetica;fillColor=#ffe6cc;strokeColor=#d79b00;fontStyle=0;fontSize=19;strokeWidth=2;" parent="1" source="IX3JWbPE97Z0-Mn2hiBN-12" target="IX3JWbPE97Z0-Mn2hiBN-1" edge="1">
          <mxGeometry relative="1" as="geometry" />
        </mxCell>
        <mxCell id="IX3JWbPE97Z0-Mn2hiBN-68" style="edgeStyle=orthogonalEdgeStyle;rounded=0;orthogonalLoop=1;jettySize=auto;html=1;fillColor=#f0a30a;strokeColor=#D79B00;curved=0;shadow=1;entryX=-0.003;entryY=0.354;entryDx=0;entryDy=0;entryPerimeter=0;strokeWidth=2;exitX=0.997;exitY=0.204;exitDx=0;exitDy=0;exitPerimeter=0;" parent="1" source="IX3JWbPE97Z0-Mn2hiBN-20" target="IX3JWbPE97Z0-Mn2hiBN-60" edge="1">
          <mxGeometry relative="1" as="geometry">
            <mxPoint x="614.78" y="160" as="sourcePoint" />
            <mxPoint x="822.0039999999999" y="160.11900000000003" as="targetPoint" />
          </mxGeometry>
        </mxCell>
        <mxCell id="IX3JWbPE97Z0-Mn2hiBN-20" value="&lt;span&gt;ViewModel&lt;/span&gt;" style="rounded=1;whiteSpace=wrap;html=1;glass=0;shadow=1;labelBackgroundColor=none;fontFamily=Helvetica;fillColor=#ffe6cc;strokeColor=#d79b00;fontStyle=0;fontSize=19;strokeWidth=2;" parent="1" vertex="1">
          <mxGeometry x="484" y="111" width="114" height="266" as="geometry" />
        </mxCell>
        <mxCell id="IX3JWbPE97Z0-Mn2hiBN-69" style="edgeStyle=orthogonalEdgeStyle;rounded=0;orthogonalLoop=1;jettySize=auto;html=1;curved=0;fillColor=#b1ddf0;strokeColor=#6C8EBF;shadow=1;exitX=-0.001;exitY=0.62;exitDx=0;exitDy=0;entryX=1.006;entryY=0.265;entryDx=0;entryDy=0;strokeWidth=2;exitPerimeter=0;entryPerimeter=0;" parent="1" source="IX3JWbPE97Z0-Mn2hiBN-60" target="IX3JWbPE97Z0-Mn2hiBN-20" edge="1">
          <mxGeometry relative="1" as="geometry">
            <mxPoint x="800.11" y="185.62999999999997" as="sourcePoint" />
            <mxPoint x="587.0000000000001" y="185.00200000000004" as="targetPoint" />
          </mxGeometry>
        </mxCell>
        <mxCell id="IX3JWbPE97Z0-Mn2hiBN-36" value="" style="edgeStyle=orthogonalEdgeStyle;rounded=0;orthogonalLoop=1;jettySize=auto;html=1;curved=1;labelBackgroundColor=none;shadow=1;fontFamily=Helvetica;fillColor=#e1d5e7;strokeColor=#9673a6;fontStyle=0;fontSize=19;strokeWidth=2;" parent="1" source="IX3JWbPE97Z0-Mn2hiBN-33" target="IX3JWbPE97Z0-Mn2hiBN-35" edge="1">
          <mxGeometry relative="1" as="geometry" />
        </mxCell>
        <mxCell id="IX3JWbPE97Z0-Mn2hiBN-39" value="" style="edgeStyle=orthogonalEdgeStyle;rounded=0;orthogonalLoop=1;jettySize=auto;html=1;curved=1;labelBackgroundColor=none;shadow=1;fontFamily=Helvetica;fillColor=#e1d5e7;strokeColor=#9673a6;fontStyle=0;fontSize=19;strokeWidth=2;" parent="1" source="IX3JWbPE97Z0-Mn2hiBN-33" target="IX3JWbPE97Z0-Mn2hiBN-38" edge="1">
          <mxGeometry relative="1" as="geometry" />
        </mxCell>
        <mxCell id="IX3JWbPE97Z0-Mn2hiBN-33" value="&lt;span&gt;Repository Implementation&lt;/span&gt;" style="rounded=1;whiteSpace=wrap;html=1;labelBackgroundColor=none;shadow=1;fontFamily=Helvetica;fillColor=#e1d5e7;strokeColor=#9673a6;fontStyle=0;fontSize=19;strokeWidth=2;" parent="1" vertex="1">
          <mxGeometry x="1276" y="185" width="222" height="118" as="geometry" />
        </mxCell>
        <mxCell id="IX3JWbPE97Z0-Mn2hiBN-35" value="&lt;span&gt;Database&lt;/span&gt;" style="whiteSpace=wrap;html=1;rounded=1;labelBackgroundColor=none;shadow=1;fontFamily=Helvetica;fillColor=#e1d5e7;strokeColor=#9673a6;fontStyle=0;fontSize=19;strokeWidth=2;" parent="1" vertex="1">
          <mxGeometry x="1616" y="125" width="120" height="60" as="geometry" />
        </mxCell>
        <mxCell id="IX3JWbPE97Z0-Mn2hiBN-12" value="&lt;span&gt;State&lt;/span&gt;" style="whiteSpace=wrap;html=1;rounded=1;glass=0;shadow=1;labelBackgroundColor=none;fontFamily=Helvetica;fillColor=#ffe6cc;strokeColor=#d79b00;fontStyle=0;fontSize=19;strokeWidth=2;" parent="1" vertex="1">
          <mxGeometry x="415" y="157" width="100" height="40" as="geometry" />
        </mxCell>
        <mxCell id="IX3JWbPE97Z0-Mn2hiBN-52" value="" style="line;strokeWidth=2;direction=south;html=1;perimeter=backbonePerimeter;points=[];outlineConnect=0;dashed=1;" parent="1" vertex="1">
          <mxGeometry x="519" y="-59" width="300" height="570" as="geometry" />
        </mxCell>
        <mxCell id="IX3JWbPE97Z0-Mn2hiBN-53" value="" style="line;strokeWidth=2;direction=south;html=1;perimeter=backbonePerimeter;points=[];outlineConnect=0;dashed=1;" parent="1" vertex="1">
          <mxGeometry x="1075" y="-59" width="300" height="570" as="geometry" />
        </mxCell>
        <mxCell id="IX3JWbPE97Z0-Mn2hiBN-57" value="&lt;font style=&quot;font-size: 25px;&quot;&gt;&amp;nbsp;&lt;font&gt;Presentation Layer&amp;nbsp; &lt;br&gt;&lt;/font&gt;&lt;/font&gt;" style="text;html=1;align=center;verticalAlign=middle;whiteSpace=wrap;rounded=0;" parent="1" vertex="1">
          <mxGeometry x="276" y="18" width="340" height="30" as="geometry" />
        </mxCell>
        <mxCell id="IX3JWbPE97Z0-Mn2hiBN-58" value="&lt;font style=&quot;font-size: 25px;&quot;&gt;&lt;span&gt;Domain Layer&lt;/span&gt;&lt;/font&gt;" style="text;html=1;align=center;verticalAlign=middle;whiteSpace=wrap;rounded=0;" parent="1" vertex="1">
          <mxGeometry x="845.5" y="18" width="189" height="30" as="geometry" />
        </mxCell>
        <mxCell id="IX3JWbPE97Z0-Mn2hiBN-59" value="&lt;font style=&quot;font-size: 25px;&quot;&gt;&lt;span&gt;Data Layer&lt;/span&gt;&lt;/font&gt;" style="text;html=1;align=center;verticalAlign=middle;whiteSpace=wrap;rounded=0;" parent="1" vertex="1">
          <mxGeometry x="1372" y="18" width="240" height="30" as="geometry" />
        </mxCell>
        <mxCell id="IX3JWbPE97Z0-Mn2hiBN-66" style="edgeStyle=orthogonalEdgeStyle;rounded=0;orthogonalLoop=1;jettySize=auto;html=1;exitX=0.5;exitY=1;exitDx=0;exitDy=0;fillColor=#1ba1e2;strokeColor=#006EAF;curved=1;shadow=1;strokeWidth=2;" parent="1" source="IX3JWbPE97Z0-Mn2hiBN-60" target="IX3JWbPE97Z0-Mn2hiBN-62" edge="1">
          <mxGeometry relative="1" as="geometry" />
        </mxCell>
        <mxCell id="IX3JWbPE97Z0-Mn2hiBN-67" style="edgeStyle=orthogonalEdgeStyle;rounded=0;orthogonalLoop=1;jettySize=auto;html=1;exitX=0.5;exitY=1;exitDx=0;exitDy=0;curved=1;fillColor=#1ba1e2;strokeColor=#006EAF;shadow=1;strokeWidth=2;" parent="1" source="IX3JWbPE97Z0-Mn2hiBN-60" target="IX3JWbPE97Z0-Mn2hiBN-61" edge="1">
          <mxGeometry relative="1" as="geometry" />
        </mxCell>
        <mxCell id="IX3JWbPE97Z0-Mn2hiBN-60" value="&lt;span&gt;UseCase&lt;br&gt;&lt;/span&gt;" style="rounded=1;whiteSpace=wrap;html=1;labelBackgroundColor=none;shadow=1;fontFamily=Helvetica;fillColor=#dae8fc;strokeColor=#6c8ebf;fontStyle=0;fontSize=19;strokeWidth=2;" parent="1" vertex="1">
          <mxGeometry x="823" y="144" width="224" height="61" as="geometry" />
        </mxCell>
        <mxCell id="IX3JWbPE97Z0-Mn2hiBN-61" value="Entities" style="rounded=1;whiteSpace=wrap;html=1;labelBackgroundColor=none;shadow=1;fontFamily=Helvetica;fillColor=#dae8fc;strokeColor=#6c8ebf;fontStyle=0;fontSize=19;strokeWidth=2;" parent="1" vertex="1">
          <mxGeometry x="706" y="278" width="224" height="72" as="geometry" />
        </mxCell>
        <mxCell id="IX3JWbPE97Z0-Mn2hiBN-62" value="&lt;div&gt;&lt;span&gt;Repository&lt;/span&gt;&lt;/div&gt;&lt;div&gt;&lt;span&gt;&amp;lt;&amp;lt;Interface&amp;gt;&amp;gt;&lt;br&gt;&lt;/span&gt;&lt;/div&gt;" style="rounded=1;whiteSpace=wrap;html=1;labelBackgroundColor=none;shadow=1;fontFamily=Helvetica;fillColor=#dae8fc;strokeColor=#6c8ebf;fontStyle=0;fontSize=19;strokeWidth=2;" parent="1" vertex="1">
          <mxGeometry x="961" y="279" width="224" height="71" as="geometry" />
        </mxCell>
      </root>
    </mxGraphModel>
  </diagram>
</mxfile>
